
<svg xmlns="http://www.w3.org/2000/svg" width="24" height="29" viewBox="0 0 24 29" fill="none">
<path d="M2.66667 28.3333C1.93333 28.3333 1.30556 28.0722 0.783333 27.55C0.261111 27.0278 0 26.4 0 25.6666V9.66665C0 8.93331 0.261111 8.30554 0.783333 7.78331C1.30556 7.26109 1.93333 6.99998 2.66667 6.99998H5.33333C5.33333 5.15554 5.98333 3.58331 7.28333 2.28331C8.58333 0.983313 10.1556 0.333313 12 0.333313C13.8444 0.333313 15.4167 0.983313 16.7167 2.28331C18.0167 3.58331 18.6667 5.15554 18.6667 6.99998H21.3333C22.0667 6.99998 22.6944 7.26109 23.2167 7.78331C23.7389 8.30554 24 8.93331 24 9.66665V25.6666C24 26.4 23.7389 27.0278 23.2167 27.55C22.6944 28.0722 22.0667 28.3333 21.3333 28.3333H2.66667ZM12 17.6666C13.8444 17.6666 15.4167 17.0166 16.7167 15.7166C18.0167 14.4166 18.6667 12.8444 18.6667 11H16C16 12.1111 15.6111 13.0555 14.8333 13.8333C14.0556 14.6111 13.1111 15 12 15C10.8889 15 9.94444 14.6111 9.16667 13.8333C8.38889 13.0555 8 12.1111 8 11H5.33333C5.33333 12.8444 5.98333 14.4166 7.28333 15.7166C8.58333 17.0166 10.1556 17.6666 12 17.6666ZM8 6.99998H16C16 5.88887 15.6111 4.94442 14.8333 4.16665C14.0556 3.38887 13.1111 2.99998 12 2.99998C10.8889 2.99998 9.94444 3.38887 9.16667 4.16665C8.38889 4.94442 8 5.88887 8 6.99998Z" fill="#1C1B1F"/>
</svg>